<svg xmlns="http://www.w3.org/2000/svg" viewBox="0 0 240 240">
    <defs>
        <linearGradient id="a" x1="46.14" x2="28.78" y1="11.39" y2="52.37" gradientUnits="userSpaceOnUse">
            <stop offset="0" stop-color="#37aee2"/>
            <stop offset="1" stop-color="#1e96c8"/>
        </linearGradient>
    </defs>
    <circle cx="120" cy="120" r="120" fill="url(#a)"/>
    <path fill="#fff" d="M81.229 128.772l14.237 39.406s1.78 3.687 3.686 3.687c1.907 0 30.516-29.897 30.516-29.897l31.77-61.924-78.696 37.877-1.513 10.851z"/>
    <path fill="#d2e5f1" d="M100.106 138.878l-2.504 35.266s-1.017 7.935 6.918 0c7.935-7.935 15.497-14.083 15.497-14.083"/>
    <path fill="#b5cfe4" d="M81.486 130.178l-30.64-10.228s-3.687-1.526-2.533-5.213c.239-.766 1.017-1.526 2.533-2.788 7.935-6.664 147.487-57.115 147.487-57.115s3.94-1.272 6.284-1.272c1.526 0 2.788.766 2.788 2.288.254.766.254 2.288.254 3.813 0 1.272-.239 2.043-.239 2.043s-1.526 14.336-14.336 126.628c0 0-.766 3.433-3.94 4.45-1.526.51-3.433.766-5.213-.766-6.664-5.213-29.897-21.763-35.11-25.195-.766-.51-1.272-1.272.254-2.288 4.45-3.94 33.838-30.897 34.604-33.838.254-.766-.766-1.272-1.526-1.017-2.788 1.017-45.363 28.863-50.069 31.897-.766.51-1.78.51-2.788.254l-28.863-9.211"/>
</svg>
